<svg xmlns="http://www.w3.org/2000/svg" width="117.828" height="45.342" viewBox="0 0 117.828 45.342"><path d="M798.657,1242.468c-.212-.023-.427-.058-.647-.1a5.246,5.246,0,0,1-.625-.165,1.968,1.968,0,0,1-.472-.22v-1.257a2.4,2.4,0,0,0,.518.343,4.111,4.111,0,0,0,.634.258,4.965,4.965,0,0,0,.67.161,3.675,3.675,0,0,0,.622.058,2.446,2.446,0,0,0,1.47-.365,1.369,1.369,0,0,0,.324-1.692,1.843,1.843,0,0,0-.448-.5,4.462,4.462,0,0,0-.676-.43q-.39-.207-.841-.435-.477-.242-.889-.49a3.9,3.9,0,0,1-.717-.545,2.291,2.291,0,0,1-.479-.676,2.1,2.1,0,0,1-.175-.887,2.076,2.076,0,0,1,.273-1.081,2.331,2.331,0,0,1,.717-.759,3.228,3.228,0,0,1,1.013-.445,4.606,4.606,0,0,1,1.158-.147,4.449,4.449,0,0,1,1.962.324v1.2a3.562,3.562,0,0,0-2.07-.558,3.394,3.394,0,0,0-.7.073,1.961,1.961,0,0,0-.623.238,1.375,1.375,0,0,0-.444.426,1.127,1.127,0,0,0-.172.635,1.3,1.3,0,0,0,.13.6,1.456,1.456,0,0,0,.384.464,3.857,3.857,0,0,0,.618.408q.366.2.841.431t.926.508a4.29,4.29,0,0,1,.769.589,2.681,2.681,0,0,1,.524.717,2.028,2.028,0,0,1,.194.9,2.288,2.288,0,0,1-.264,1.139,2.164,2.164,0,0,1-.711.758,3.1,3.1,0,0,1-1.031.423,5.675,5.675,0,0,1-1.231.13A5.235,5.235,0,0,1,798.657,1242.468Zm-9.506,0q-.317-.035-.647-.1a5.155,5.155,0,0,1-.625-.165,1.959,1.959,0,0,1-.473-.22v-1.257a2.424,2.424,0,0,0,.518.343,4.187,4.187,0,0,0,.634.258,4.947,4.947,0,0,0,.671.161,3.667,3.667,0,0,0,.622.058,2.446,2.446,0,0,0,1.47-.365,1.37,1.37,0,0,0,.323-1.692,1.839,1.839,0,0,0-.447-.5,4.552,4.552,0,0,0-.676-.43q-.39-.207-.841-.435-.475-.242-.888-.49a3.869,3.869,0,0,1-.717-.545,2.294,2.294,0,0,1-.48-.676,2.1,2.1,0,0,1-.175-.887,2.076,2.076,0,0,1,.274-1.081,2.331,2.331,0,0,1,.717-.759,3.228,3.228,0,0,1,1.013-.445,4.606,4.606,0,0,1,1.158-.147,4.445,4.445,0,0,1,1.961.324v1.2a3.559,3.559,0,0,0-2.069-.558,3.4,3.4,0,0,0-.7.073,1.956,1.956,0,0,0-.622.238,1.379,1.379,0,0,0-.445.426,1.127,1.127,0,0,0-.171.635,1.309,1.309,0,0,0,.13.6,1.468,1.468,0,0,0,.384.464,3.828,3.828,0,0,0,.619.408q.365.2.841.431t.927.508a4.285,4.285,0,0,1,.768.589,2.644,2.644,0,0,1,.524.717,2.016,2.016,0,0,1,.193.9,2.289,2.289,0,0,1-.263,1.139,2.172,2.172,0,0,1-.711.758,3.114,3.114,0,0,1-1.031.423,5.684,5.684,0,0,1-1.232.13A5.222,5.222,0,0,1,789.151,1242.468Zm-22.383-1.216a4.617,4.617,0,0,1-1.168-3.283,4.835,4.835,0,0,1,1.314-3.528,4.46,4.46,0,0,1,3.333-1.346,5.368,5.368,0,0,1,2.146.374v1.137a4.346,4.346,0,0,0-2.158-.545,3.312,3.312,0,0,0-2.543,1.048,3.94,3.94,0,0,0-.975,2.8,3.762,3.762,0,0,0,.911,2.651,3.1,3.1,0,0,0,2.39.986,4.471,4.471,0,0,0,2.374-.61v1.036a5.353,5.353,0,0,1-2.514.533A4.054,4.054,0,0,1,766.768,1241.252Zm62.339,1.1-.965-2.552h-3.859l-.907,2.552h-1.187l3.491-9.1h1.1l3.5,9.1Zm-3.053-7.389-1.416,3.879h3.154l-1.427-3.879a3.71,3.71,0,0,1-.14-.609H826.2A3.4,3.4,0,0,1,826.054,1234.961Zm-8.346,7.389v-8.138h-2.622v-.966H821.4v.966h-2.628v8.138Zm-10.865,0v-9.1h4.621v.966H807.91v3.028H811.2v.958H807.91v3.187h3.758v.965Zm-24.133,0-.965-2.552h-3.859l-.908,2.552h-1.187l3.491-9.1h1.105l3.5,9.1Zm-3.053-7.389-1.416,3.879H781.4l-1.428-3.879a3.718,3.718,0,0,1-.139-.609H779.8A3.4,3.4,0,0,1,779.658,1234.961Zm52.069-16.888a8.3,8.3,0,0,1-2.118-5.944,8.652,8.652,0,0,1,2.2-6.3,7.918,7.918,0,0,1,5.953-2.265,7.178,7.178,0,0,1,5.585,2.2,8.735,8.735,0,0,1,2.008,6.11,8.594,8.594,0,0,1-2.164,6.133,7.584,7.584,0,0,1-5.8,2.3A7.42,7.42,0,0,1,831.727,1218.073Zm1.945-10.671a6.9,6.9,0,0,0-1.437,4.633,6.521,6.521,0,0,0,1.454,4.484,4.938,4.938,0,0,0,3.89,1.641,4.686,4.686,0,0,0,3.82-1.609,6.984,6.984,0,0,0,1.336-4.578,7.1,7.1,0,0,0-1.336-4.625,4.662,4.662,0,0,0-3.82-1.625A4.875,4.875,0,0,0,833.672,1207.4Zm-67.539,9.773a11.648,11.648,0,0,1-2.867-8.171,12.345,12.345,0,0,1,2.922-8.627,10.2,10.2,0,0,1,7.952-3.217,9.613,9.613,0,0,1,7.477,3.124,11.7,11.7,0,0,1,2.836,8.172q0,5.485-2.906,8.672a10.012,10.012,0,0,1-7.781,3.189A9.837,9.837,0,0,1,766.133,1217.175Zm2.086-15.093a11.328,11.328,0,0,0-.055,13.351,7.008,7.008,0,0,0,5.6,2.524,7.361,7.361,0,0,0,5.812-2.407,9.837,9.837,0,0,0,2.125-6.736q0-4.436-2.063-6.858a7.068,7.068,0,0,0-5.687-2.422A7.218,7.218,0,0,0,768.219,1202.082Zm42.156,17.858v-.734l13.016-19.3H811.422v-2.374h16v.624L814.3,1217.567H827.11v2.373Zm-6.672,0-11.532-17.858a7.519,7.519,0,0,1-.719-1.408h-.094a23.015,23.015,0,0,1,.125,3.078v16.188H788.86v-22.4h3.406l11.219,17.578q.7,1.094.905,1.5h.063a23.669,23.669,0,0,1-.157-3.3v-15.78h2.625v22.4Zm-52.938,0v-22.4h2.625v20.031h9v2.373Zm-6.2,0-2.375-6.28h-9.5l-2.234,6.28h-2.922l8.594-22.4h2.719l8.625,22.4Zm-7.516-18.186-3.484,9.547h7.765l-3.515-9.547a9.064,9.064,0,0,1-.344-1.5h-.063A8.275,8.275,0,0,1,737.047,1201.754Z" transform="translate(-727.531 -1197.16)" fill="#002c53"/></svg>