<svg xmlns="http://www.w3.org/2000/svg" width="120.359" height="83.968" viewBox="0 0 120.359 83.968"><path d="M637.666,1254.977v-4.865H636.1v-.577h3.776v.577H638.3v4.865Zm-4.772,0-2.8-4.337a1.768,1.768,0,0,1-.175-.341H629.9a5.5,5.5,0,0,1,.031.747v3.931h-.637v-5.441h.827l2.724,4.269c.113.177.187.3.22.365h.015a5.779,5.779,0,0,1-.038-.8v-3.832h.637v5.441Zm-9.089,0v-5.441h2.762v.577h-2.125v1.81h1.966v.573h-1.966v1.9h2.246v.577Zm-3.619,0v-3.65q0-.432.053-1.058h-.014a3.349,3.349,0,0,1-.164.527l-1.859,4.181h-.311l-1.856-4.151a3.281,3.281,0,0,1-.163-.558h-.015q.031.327.031,1.067v3.642h-.615v-5.441h.842l1.669,3.794a4.867,4.867,0,0,1,.25.653h.023c.109-.3.2-.521.262-.668l1.7-3.779h.8v5.441Zm-8.675,0-2.8-4.337a1.878,1.878,0,0,1-.175-.341h-.022a5.5,5.5,0,0,1,.031.747v3.931h-.637v-5.441h.827l2.724,4.269c.113.177.187.3.22.365h.015a5.781,5.781,0,0,1-.038-.8v-3.832h.637v5.441Zm-7.227,0v-5.441h.637v5.441Zm-3.06,0-.577-1.526h-2.307l-.543,1.526h-.709l2.086-5.441h.661l2.094,5.441Zm-1.825-4.416-.846,2.318h1.885l-.853-2.318a2.245,2.245,0,0,1-.084-.365h-.015A2.006,2.006,0,0,1,599.4,1250.561Zm-5.765,4.416v-4.865h-1.567v-.577h3.775v.577h-1.57v4.865Zm-3.721,0-.911-1.526a3.407,3.407,0,0,0-.243-.363,1.351,1.351,0,0,0-.241-.244.808.808,0,0,0-.266-.139,1.07,1.07,0,0,0-.32-.044h-.524v2.315h-.637v-5.441h1.624a2.316,2.316,0,0,1,.659.089,1.479,1.479,0,0,1,.524.272,1.257,1.257,0,0,1,.346.454,1.5,1.5,0,0,1,.125.635,1.529,1.529,0,0,1-.085.521,1.393,1.393,0,0,1-.243.424,1.485,1.485,0,0,1-.38.317,1.948,1.948,0,0,1-.5.2v.015a1.123,1.123,0,0,1,.237.139,1.262,1.262,0,0,1,.192.184,2.491,2.491,0,0,1,.181.241c.059.09.125.194.2.313l1.021,1.635Zm-2.5-2.892h.866a1.3,1.3,0,0,0,.442-.072,1.021,1.021,0,0,0,.351-.207.943.943,0,0,0,.231-.329,1.1,1.1,0,0,0,.084-.438.852.852,0,0,0-.284-.681,1.215,1.215,0,0,0-.817-.245h-.873Zm-6.122,2.892v-5.441h2.762v.577h-2.125v1.81h1.966v.573h-1.966v1.9h2.246v.577Zm-4.616,0v-4.865H575.1v-.577h3.775v.577h-1.57v4.865Zm-4.772,0-2.8-4.337a1.821,1.821,0,0,1-.175-.341H568.9a5.722,5.722,0,0,1,.03.747v3.931h-.637v-5.441h.827l2.724,4.269c.114.177.187.3.22.365h.014a5.781,5.781,0,0,1-.038-.8v-3.832h.638v5.441Zm-9.089,0v-5.441h2.762v.577h-2.125v1.81h1.966v.573h-1.966v1.9h2.246v.577Zm90.378-14.617q-.668-.073-1.364-.214a11.188,11.188,0,0,1-1.318-.347,4.115,4.115,0,0,1-1-.462v-2.65a5.125,5.125,0,0,0,1.091.723,8.734,8.734,0,0,0,1.337.542,10.577,10.577,0,0,0,1.412.341,7.892,7.892,0,0,0,1.311.121,5.139,5.139,0,0,0,3.1-.77,2.886,2.886,0,0,0,.682-3.566,3.85,3.85,0,0,0-.943-1.05,9.331,9.331,0,0,0-1.426-.91q-.822-.435-1.773-.916-1-.509-1.873-1.03a8.153,8.153,0,0,1-1.512-1.151,4.8,4.8,0,0,1-1.011-1.425,4.864,4.864,0,0,1,.208-4.148,4.93,4.93,0,0,1,1.512-1.6,6.852,6.852,0,0,1,2.134-.936,9.774,9.774,0,0,1,2.443-.308,9.355,9.355,0,0,1,4.135.682v2.529a7.5,7.5,0,0,0-4.362-1.178,7.181,7.181,0,0,0-1.472.154,4.156,4.156,0,0,0-1.311.5,2.906,2.906,0,0,0-.936.9,2.377,2.377,0,0,0-.362,1.338,2.755,2.755,0,0,0,.274,1.271,3.116,3.116,0,0,0,.81.977,8.028,8.028,0,0,0,1.3.856q.77.414,1.773.91,1.03.509,1.954,1.07a9,9,0,0,1,1.619,1.245,5.543,5.543,0,0,1,1.1,1.512,4.255,4.255,0,0,1,.409,1.9,4.823,4.823,0,0,1-.555,2.4,4.569,4.569,0,0,1-1.5,1.6,6.537,6.537,0,0,1-2.174.889,11.922,11.922,0,0,1-2.6.275A10.464,10.464,0,0,1,653.188,1240.36Zm-61.294-7.7v-11.735h2.248v11.589q0,5.9,4.977,5.9,4.8,0,4.8-5.7v-11.789h2.248v11.427q0,8.082-7.293,8.082Q591.894,1240.434,591.894,1232.66Zm45.738,7.453v-19.188h2.247v19.188Zm-21.19,0v-19.188H621.9a5.965,5.965,0,0,1,3.947,1.218,3.935,3.935,0,0,1,1.459,3.172,4.668,4.668,0,0,1-.883,2.837,4.764,4.764,0,0,1-2.435,1.713v.053a4.882,4.882,0,0,1,3.1,1.465,4.509,4.509,0,0,1,1.165,3.218,5.017,5.017,0,0,1-1.767,3.987,6.574,6.574,0,0,1-4.456,1.525Zm2.247-2.034h3.051a4.574,4.574,0,0,0,3.071-.936,3.209,3.209,0,0,0,1.091-2.569q0-3.4-4.63-3.4H618.69Zm0-8.924h2.3a4.372,4.372,0,0,0,2.9-.89,3.1,3.1,0,0,0,1.057-2.508q0-2.8-3.679-2.8H618.69Zm-39.823,10.958-9.875-15.294a6.444,6.444,0,0,1-.616-1.2h-.08a19.8,19.8,0,0,1,.107,2.636v13.862h-2.248v-19.188h2.917l9.607,15.053q.6.937.776,1.284h.054a20.308,20.308,0,0,1-.134-2.823v-13.514h2.248v19.188Zm-23.5,0-2.034-5.378h-8.135l-1.913,5.378h-2.5l7.359-19.188h2.328l7.386,19.188Zm-6.436-15.574-2.984,8.176h6.65l-3.01-8.176a7.907,7.907,0,0,1-.3-1.285h-.053A7.151,7.151,0,0,1,548.926,1224.538Zm9.982-35.708-.362-.387.362-.387a53.663,53.663,0,0,1,78.459,0l.361.387-.361.387a53.667,53.667,0,0,1-78.459,0Zm1.18-.387a52.545,52.545,0,0,0,76.1,0,52.543,52.543,0,0,0-76.1,0Zm23.291.34a15.094,15.094,0,1,1,15.1,15.087A15.109,15.109,0,0,1,583.379,1188.783Zm1.126,0a13.97,13.97,0,1,0,13.972-13.96A13.983,13.983,0,0,0,584.505,1188.783Zm3.489-.128a10.406,10.406,0,1,1,10.406,10.4A10.4,10.4,0,0,1,587.994,1188.655Zm6.255,0a4.149,4.149,0,1,0,4.151-4.147A4.149,4.149,0,0,0,594.249,1188.655Z" transform="translate(-540.778 -1171.009)" fill="#002c53"/></svg>