<svg xmlns="http://www.w3.org/2000/svg" width="671.688" height="665.041" viewBox="0 0 671.688 665.041"><g transform="translate(3.815)"><path d="M143.616,1721.741c28.809-89.422,185.847-137.367,350.753-107.087s275.235,127.318,246.426,216.74S502.9,2152.681,338,2122.4,114.807,1811.163,143.616,1721.741Z" transform="translate(-92.345 -1564.862)" fill="#e1e0e4" opacity="0.369"/><path d="M532.756,2071.458c7.489,75.361-65.841,131.028-169.893,118.274-127.788-15.664-222.887-124.088-185.912-208.875,22.91-52.536,139.511-181.15,222.924-145.675C471.272,1865.547,527.612,2019.692,532.756,2071.458Z" transform="translate(-92.345 -1622.163)" fill="#efedf6"/><path d="M463.087,1565.809c48.928-8.174,88.549,37.39,84.8,106.028-4.6,84.3-71.274,151.231-128.325,130.721-35.349-12.708-124.56-83.417-105.052-139.537C331.211,1614.984,429.479,1571.424,463.087,1565.809Z" transform="translate(-92.345 -1564.862)" fill="#515efc"/><path d="M194.21,2229.3s-31.155-193.948,43.011-179.027,93.391,67.737,44.623,71.117-111.774-112.895-76.062-148.813,134.143-55.958,224.731-60.014,243.575-55.768,246.646-120.542,13.9-96.448-44.1-120.185-99.945-90.689-122.482-34.156-1.464,90.239-141.253,137.642-194.691,133.071-241.589,49.122S81.977,1676.9,122.722,1672.2s207.4,21.159,172.386-41.119-48.406-49.837-66.884-19.835,86.977,192.305,140.742,199.566,108.515-33.075,227.335-17.214,181.47,16.012,153.535,74.536S737.873,1972.1,642.565,1980.658s-62.533,15.471-108.682,2.745" transform="translate(-92.345 -1564.862)" fill="none" stroke="#fff" stroke-width="7.63" opacity="0.588"/></g></svg>