<svg xmlns="http://www.w3.org/2000/svg" width="191.497" height="72.042" viewBox="0 0 191.497 72.042"><path d="M1116.4,1236.529q-1.269-.14-2.59-.406a21.1,21.1,0,0,1-2.5-.661,7.754,7.754,0,0,1-1.892-.876v-5.027a9.753,9.753,0,0,0,2.069,1.371,16.78,16.78,0,0,0,2.539,1.029,20.249,20.249,0,0,0,2.679.647,14.95,14.95,0,0,0,2.488.229q3.937,0,5.878-1.46a5.475,5.475,0,0,0,1.3-6.767,7.286,7.286,0,0,0-1.79-1.993,17.794,17.794,0,0,0-2.7-1.727q-1.562-.825-3.364-1.739-1.9-.965-3.555-1.955a15.418,15.418,0,0,1-2.869-2.184,9.1,9.1,0,0,1-1.917-2.7,9.219,9.219,0,0,1,.393-7.871,9.378,9.378,0,0,1,2.869-3.034,13.024,13.024,0,0,1,4.05-1.777,18.531,18.531,0,0,1,4.634-.584q5.382,0,7.845,1.3v4.8a14.22,14.22,0,0,0-8.277-2.235,13.626,13.626,0,0,0-2.793.292,7.882,7.882,0,0,0-2.489.952,5.512,5.512,0,0,0-1.777,1.7,4.513,4.513,0,0,0-.685,2.539,5.22,5.22,0,0,0,.52,2.412,5.894,5.894,0,0,0,1.536,1.854,15.323,15.323,0,0,0,2.475,1.625q1.461.787,3.364,1.727,1.956.964,3.707,2.031a16.95,16.95,0,0,1,3.073,2.361,10.492,10.492,0,0,1,2.094,2.869,8.062,8.062,0,0,1,.775,3.605,9.137,9.137,0,0,1-1.054,4.558,8.649,8.649,0,0,1-2.844,3.035,12.433,12.433,0,0,1-4.126,1.688,22.623,22.623,0,0,1-4.926.52A20.179,20.179,0,0,1,1116.4,1236.529Zm-27.625,0q-1.27-.14-2.59-.406a21.159,21.159,0,0,1-2.5-.661,7.786,7.786,0,0,1-1.892-.876v-5.027a9.763,9.763,0,0,0,2.07,1.371,16.744,16.744,0,0,0,2.539,1.029,20.2,20.2,0,0,0,2.678.647,14.967,14.967,0,0,0,2.488.229q3.935,0,5.878-1.46a5.478,5.478,0,0,0,1.3-6.767,7.318,7.318,0,0,0-1.79-1.993,17.8,17.8,0,0,0-2.7-1.727q-1.561-.825-3.364-1.739-1.9-.965-3.554-1.955a15.384,15.384,0,0,1-2.869-2.184,9.1,9.1,0,0,1-1.917-2.7,9.218,9.218,0,0,1,.393-7.871,9.369,9.369,0,0,1,2.869-3.034,13.006,13.006,0,0,1,4.05-1.777,18.522,18.522,0,0,1,4.633-.584q5.384,0,7.846,1.3v4.8a14.225,14.225,0,0,0-8.277-2.235,13.634,13.634,0,0,0-2.794.292,7.875,7.875,0,0,0-2.488.952,5.512,5.512,0,0,0-1.778,1.7,4.513,4.513,0,0,0-.686,2.539,5.231,5.231,0,0,0,.52,2.412,5.921,5.921,0,0,0,1.536,1.854,15.335,15.335,0,0,0,2.476,1.625q1.459.787,3.364,1.727,1.955.964,3.707,2.031a16.949,16.949,0,0,1,3.073,2.361,10.51,10.51,0,0,1,2.094,2.869,8.061,8.061,0,0,1,.774,3.605,9.146,9.146,0,0,1-1.053,4.558,8.655,8.655,0,0,1-2.844,3.035,12.433,12.433,0,0,1-4.126,1.688,22.631,22.631,0,0,1-4.927.52A20.174,20.174,0,0,1,1088.771,1236.529Zm-31.586-.47v-36.41h18.484v3.859h-14.218v12.111H1074.6v3.834h-13.152V1232.2h15.031v3.859Zm-10.08,0-6.094-10.207a22.169,22.169,0,0,0-1.625-2.425,9.262,9.262,0,0,0-1.613-1.638,5.592,5.592,0,0,0-1.777-.927,7.313,7.313,0,0,0-2.145-.292h-3.5v15.488h-4.265v-36.41h10.867a15.486,15.486,0,0,1,4.406.6,9.864,9.864,0,0,1,3.5,1.815,8.435,8.435,0,0,1,2.324,3.035,10.068,10.068,0,0,1,.838,4.252,10.24,10.24,0,0,1-.572,3.491,9.106,9.106,0,0,1-1.625,2.831,9.839,9.839,0,0,1-2.539,2.12,12.973,12.973,0,0,1-3.339,1.358v.1a7.684,7.684,0,0,1,1.588.927,8.675,8.675,0,0,1,1.282,1.231,16.215,16.215,0,0,1,1.206,1.612q.6.9,1.333,2.1l6.83,10.943Zm-16.758-19.347h5.79a8.784,8.784,0,0,0,2.957-.482,6.861,6.861,0,0,0,2.349-1.384,6.291,6.291,0,0,0,1.549-2.209,7.4,7.4,0,0,0,.558-2.933,5.708,5.708,0,0,0-1.891-4.558,8.129,8.129,0,0,0-5.472-1.638h-5.84Zm-33.388,19.347v-36.41h10q5.84,0,9.052,2.844t3.212,8.024a11.037,11.037,0,0,1-3.568,8.481q-3.568,3.3-9.636,3.3h-4.8v13.762Zm4.265-17.621h4.469q4.417,0,6.741-2.019a7.145,7.145,0,0,0,2.323-5.7q0-7.212-8.531-7.212h-5Zm-15.006,17.621-8.379-13.939a12.551,12.551,0,0,1-.838-1.8h-.1q-.254.583-.863,1.8l-8.633,13.939h-5.23l12.187-18.307-11.222-18.1h5.23l7.439,12.8a25.608,25.608,0,0,1,1.3,2.539h.1a28.009,28.009,0,0,1,1.422-2.641l7.744-12.7h4.9L979.82,1217.7l11.6,18.357Zm-46.237,0v-36.41h18.485v3.859H944.248v12.111H957.4v3.834H944.248V1232.2h15.031v3.859Zm91.873-55.01v-9.264h2.468v8.87q0,4.9,3.754,4.9a3.8,3.8,0,0,0,2.99-1.34,5.124,5.124,0,0,0,1.173-3.5v-8.931h2.482v15.5h-2.482v-2.453h-.06a5.1,5.1,0,0,1-4.784,2.816Q1031.854,1187.649,1031.854,1181.049Zm-49.27,4.488a8.647,8.647,0,0,1-1.876-5.942,8.477,8.477,0,0,1,2.05-5.9,6.579,6.579,0,0,1,5.094-2.278,5.825,5.825,0,0,1,4.707,1.968,8.2,8.2,0,0,1,1.666,5.464v1.3H983.281a5.8,5.8,0,0,0,1.392,4,4.8,4.8,0,0,0,3.663,1.408,7.61,7.61,0,0,0,4.813-1.726v2.332a9,9,0,0,1-5.4,1.483A6.551,6.551,0,0,1,982.585,1185.538Zm2.24-10.77a5.7,5.7,0,0,0-1.514,3.285h8.371a5.05,5.05,0,0,0-1.037-3.345,3.533,3.533,0,0,0-2.839-1.2A4.012,4.012,0,0,0,984.825,1174.767Zm84.433,12.518v-8.9a6.716,6.716,0,0,0-.795-3.724,3.012,3.012,0,0,0-2.671-1.15,3.306,3.306,0,0,0-2.7,1.453,5.559,5.559,0,0,0-1.113,3.481v8.84h-2.482v-9.2q0-4.571-3.527-4.571a3.269,3.269,0,0,0-2.694,1.37,5.662,5.662,0,0,0-1.06,3.565v8.84h-2.482v-15.5h2.482v2.452h.061a5.266,5.266,0,0,1,4.813-2.815,4.476,4.476,0,0,1,4.389,3.209,5.533,5.533,0,0,1,5.147-3.209q5.117,0,5.116,6.313v9.551Zm-44.578,0v-15.5h2.483v15.5Zm-7.175,0v-8.9a6.716,6.716,0,0,0-.795-3.724,3.013,3.013,0,0,0-2.671-1.15,3.307,3.307,0,0,0-2.7,1.453,5.559,5.559,0,0,0-1.112,3.481v8.84h-2.483v-9.2q0-4.571-3.526-4.571a3.269,3.269,0,0,0-2.695,1.37,5.662,5.662,0,0,0-1.059,3.565v8.84h-2.482v-15.5h2.482v2.452h.06a5.267,5.267,0,0,1,4.813-2.815,4.478,4.478,0,0,1,4.39,3.209,5.531,5.531,0,0,1,5.146-3.209q5.117,0,5.117,6.313v9.551Zm-46.515,0v-15.5h2.482v3.194h.061a5.409,5.409,0,0,1,1.619-2.551,3.691,3.691,0,0,1,2.437-.916,4.049,4.049,0,0,1,1.483.212v2.573a3.034,3.034,0,0,0-1.877-.5,3.167,3.167,0,0,0-2.657,1.5,6.923,6.923,0,0,0-1.067,4.087v7.9Zm-17.029,0v-21.706h5.964a7.87,7.87,0,0,1,5.4,1.7,6.052,6.052,0,0,1,1.915,4.784,6.58,6.58,0,0,1-2.127,5.055,8.124,8.124,0,0,1-5.745,1.967H956.5v8.2Zm2.543-10.5h2.664a5.957,5.957,0,0,0,4.018-1.2,4.26,4.26,0,0,0,1.385-3.4q0-4.3-5.086-4.3H956.5Zm68.312-9.385a1.53,1.53,0,0,1-.47-1.15,1.591,1.591,0,0,1,1.6-1.619,1.6,1.6,0,0,1,1.158.462,1.617,1.617,0,0,1,0,2.293,1.591,1.591,0,0,1-1.158.469A1.569,1.569,0,0,1,1024.817,1167.4Z" transform="translate(-939.982 -1164.626)" fill="#002c53"/></svg>