<svg xmlns="http://www.w3.org/2000/svg" width="135.352" height="35.848" viewBox="0 0 135.352 35.848"><path d="M368.221,1240.619a4.044,4.044,0,1,1,4.048,3.916A3.876,3.876,0,0,1,368.221,1240.619Zm.8,0a3.234,3.234,0,1,0,3.245-3.19A3.132,3.132,0,0,0,369.023,1240.619Zm-14.047,0a3.866,3.866,0,0,1,4.037-3.916,3.729,3.729,0,0,1,2.816,1.122l-.518.517a3.05,3.05,0,0,0-2.277-.913,3.191,3.191,0,1,0,0,6.38,3.02,3.02,0,0,0,2.277-.924l.518.517a3.744,3.744,0,0,1-2.827,1.132A3.863,3.863,0,0,1,354.976,1240.619Zm87.231,3.85v-2.662l-3.081-5.037H440l2.64,4.323,2.641-4.323h.814l-3.08,5.037v2.662Zm-10.517,0-4.95-6.248v6.248h-.814v-7.7h.671l4.962,6.248v-6.248h.8v7.7Zm-13.4,0-.924-2.057h-4.29l-.923,2.057h-.848l3.521-7.7h.8l3.52,7.7Zm-4.918-2.717h3.7l-1.848-4.135Zm-13.738,2.717v-7.7h2.882c1.957,0,3.146.99,3.146,2.64s-1.188,2.629-3.146,2.629h-2.068v2.431Zm.814-3.146H402.5c1.541,0,2.354-.7,2.354-1.914,0-1.232-.814-1.936-2.354-1.936h-2.046Zm-9.6,3.146v-6.16l-3.025,5.18h-.385l-3.025-5.148v6.127h-.781v-7.7h.671l3.344,5.709,3.311-5.709h.671v7.7Zm52.724-14.117v-2.578a7.1,7.1,0,0,0,4.321,1.451q3.164,0,3.164-2.11a1.827,1.827,0,0,0-.271-1.018,2.709,2.709,0,0,0-.733-.74,5.637,5.637,0,0,0-1.084-.579q-.624-.256-1.341-.535a17.346,17.346,0,0,1-1.75-.8,5.3,5.3,0,0,1-1.259-.908,3.386,3.386,0,0,1-.762-1.15,4.064,4.064,0,0,1-.257-1.508,3.587,3.587,0,0,1,.483-1.868,4.3,4.3,0,0,1,1.29-1.362,6,6,0,0,1,1.838-.828,8.164,8.164,0,0,1,2.132-.278,8.588,8.588,0,0,1,3.486.674v2.431a6.791,6.791,0,0,0-3.808-1.084,4.441,4.441,0,0,0-1.216.154,2.981,2.981,0,0,0-.931.432,1.993,1.993,0,0,0-.6.667,1.748,1.748,0,0,0-.212.857,2.046,2.046,0,0,0,.212.981,2.154,2.154,0,0,0,.622.7,4.744,4.744,0,0,0,1,.557q.586.248,1.333.542a18.609,18.609,0,0,1,1.787.784,6.118,6.118,0,0,1,1.347.908,3.55,3.55,0,0,1,.858,1.165,3.763,3.763,0,0,1,.3,1.568,3.692,3.692,0,0,1-.491,1.933,4.2,4.2,0,0,1-1.311,1.363,6,6,0,0,1-1.889.806,9.343,9.343,0,0,1-2.242.264A8.508,8.508,0,0,1,443.571,1230.351Zm-13.99-1.15a8.365,8.365,0,0,1-1.816-5.749,8.2,8.2,0,0,1,1.984-5.706,6.365,6.365,0,0,1,4.929-2.2,5.637,5.637,0,0,1,4.556,1.9,7.935,7.935,0,0,1,1.611,5.287v1.26h-10.59a5.608,5.608,0,0,0,1.347,3.867,4.647,4.647,0,0,0,3.545,1.363,7.371,7.371,0,0,0,4.658-1.67v2.256a8.71,8.71,0,0,1-5.23,1.435A6.341,6.341,0,0,1,429.582,1229.2Zm2.168-10.422a5.523,5.523,0,0,0-1.465,3.179h8.1a4.885,4.885,0,0,0-1-3.237,3.418,3.418,0,0,0-2.747-1.157A3.88,3.88,0,0,0,431.75,1218.779Zm-69.082,6.079v-8.964h2.388v8.583q0,4.747,3.633,4.747a3.673,3.673,0,0,0,2.893-1.3,4.959,4.959,0,0,0,1.136-3.391v-8.642h2.4v15h-2.4v-2.373h-.059a4.934,4.934,0,0,1-4.63,2.725Q362.668,1231.245,362.668,1224.858Zm-16.3,4.285a7.786,7.786,0,0,1-1.984-5.574,8.111,8.111,0,0,1,2.065-5.9,7.427,7.427,0,0,1,5.581-2.124,6.729,6.729,0,0,1,5.237,2.065,8.191,8.191,0,0,1,1.882,5.728,8.057,8.057,0,0,1-2.029,5.749,7.109,7.109,0,0,1-5.442,2.161A6.958,6.958,0,0,1,346.371,1229.143Zm1.824-10a6.464,6.464,0,0,0-1.348,4.344,6.119,6.119,0,0,0,1.363,4.2,4.631,4.631,0,0,0,3.648,1.538,4.391,4.391,0,0,0,3.581-1.509,6.545,6.545,0,0,0,1.253-4.292,6.656,6.656,0,0,0-1.253-4.335,4.371,4.371,0,0,0-3.581-1.524A4.567,4.567,0,0,0,348.2,1219.138Zm-15.352,12.026q-.732-.08-1.494-.234a12.222,12.222,0,0,1-1.443-.381,4.494,4.494,0,0,1-1.092-.506v-2.9a5.623,5.623,0,0,0,1.194.79,9.628,9.628,0,0,0,1.464.594,11.71,11.71,0,0,0,1.546.374,8.671,8.671,0,0,0,1.436.131,5.626,5.626,0,0,0,3.391-.842,3.159,3.159,0,0,0,.747-3.9,4.21,4.21,0,0,0-1.033-1.15,10.282,10.282,0,0,0-1.56-1q-.9-.475-1.941-1-1.1-.556-2.05-1.128a8.868,8.868,0,0,1-1.656-1.26,5.256,5.256,0,0,1-1.106-1.56,5.321,5.321,0,0,1,.228-4.541,5.4,5.4,0,0,1,1.655-1.75,7.511,7.511,0,0,1,2.336-1.025,10.723,10.723,0,0,1,2.673-.337,10.24,10.24,0,0,1,4.527.747v2.768a8.2,8.2,0,0,0-4.775-1.289,7.842,7.842,0,0,0-1.612.168,4.57,4.57,0,0,0-1.435.549,3.185,3.185,0,0,0-1.025.982,2.6,2.6,0,0,0-.4,1.464,3.026,3.026,0,0,0,.3,1.392,3.418,3.418,0,0,0,.887,1.069,8.8,8.8,0,0,0,1.428.937q.842.455,1.94,1,1.129.556,2.139,1.172a9.771,9.771,0,0,1,1.772,1.363,6.051,6.051,0,0,1,1.209,1.655,4.652,4.652,0,0,1,.446,2.08,5.28,5.28,0,0,1-.608,2.63,5,5,0,0,1-1.641,1.75,7.163,7.163,0,0,1-2.381.974,13.007,13.007,0,0,1-2.842.3A11.546,11.546,0,0,1,332.843,1231.164Zm125.141-4.343v-8.877h-2.578v-2.05h2.578v-3.662l2.4-.777v4.439h3.779v2.05h-3.779v8.452a3.509,3.509,0,0,0,.512,2.154,2.048,2.048,0,0,0,1.7.644,2.526,2.526,0,0,0,1.568-.5v2.05a4.622,4.622,0,0,1-2.241.469Q457.985,1231.215,457.985,1226.821Zm-77.241,0v-8.877h-2.578v-2.05h2.578v-3.662l2.4-.777v4.439h3.779v2.05h-3.779v8.452a3.5,3.5,0,0,0,.513,2.154,2.047,2.047,0,0,0,1.7.644,2.523,2.523,0,0,0,1.567-.5v2.05a4.623,4.623,0,0,1-2.241.469Q380.744,1231.215,380.744,1226.821Zm38.276,4.073-3.091-10.737a6.989,6.989,0,0,1-.234-1.391h-.059a6.543,6.543,0,0,1-.307,1.362l-3.355,10.767h-2.4l-4.54-15h2.519l3.106,11.279a6.814,6.814,0,0,1,.2,1.347h.118a6.255,6.255,0,0,1,.264-1.376l3.457-11.25h2.2L420,1227.2a8.082,8.082,0,0,1,.22,1.347h.117a6.237,6.237,0,0,1,.249-1.347l3.047-11.309h2.373l-4.5,15Zm-18.838,0v-8.643q0-4.687-3.486-4.687a3.8,3.8,0,0,0-2.959,1.355,5.047,5.047,0,0,0-1.2,3.479v8.5h-2.4v-22.207h2.4v9.7h.059a5.457,5.457,0,0,1,4.922-2.841q5.068,0,5.068,6.108v9.243Z" transform="translate(-328.815 -1208.687)" fill="#002c53"/></svg>